<svg width="24" height="25" viewBox="0 0 24 25" fill="none" xmlns="http://www.w3.org/2000/svg">
<path d="M3.30525 17.3619V17.3526V3.29649C3.30525 2.56944 3.59116 1.90696 4.05219 1.42702C4.51143 0.94646 5.14698 0.648438 5.84567 0.648438C6.54376 0.648438 7.17812 0.94646 7.63855 1.42578C8.03346 1.83618 8.29912 2.38069 8.36762 2.98543H20.7022C20.8666 2.98543 21 3.1245 21 3.29587V19.6896C21 19.8609 20.8666 20 20.7022 20H5.85281H5.84507H5.83614C5.13804 19.9975 4.50607 19.7014 4.04861 19.2245L4.03194 19.2059C3.58401 18.7297 3.30704 18.079 3.30466 17.3606L3.30525 17.3619ZM11.8825 7.16394L18.0379 13.5795C18.079 13.6223 18.1058 13.6751 18.1177 13.7304L18.6228 15.7898C18.6633 15.9556 18.5668 16.1245 18.4078 16.1667C18.3577 16.1797 18.3077 16.1791 18.2612 16.1667L16.2783 15.6377C16.2241 15.6234 16.1777 15.5949 16.1413 15.5564L9.98598 9.14082C9.57737 8.7149 9.57022 8.17908 9.78167 7.72398C9.85911 7.55696 9.96572 7.40298 10.0908 7.2726C10.2159 7.14221 10.3642 7.03108 10.5238 6.95036C10.9593 6.73057 11.4733 6.7374 11.8825 7.16394ZM17.5596 13.9588L11.462 7.60291C11.2636 7.39491 11.0051 7.39615 10.7818 7.50853C10.6859 7.55696 10.5929 7.62712 10.5119 7.71218C10.4303 7.79724 10.363 7.89348 10.3166 7.99344C10.2087 8.22565 10.2087 8.49511 10.4071 8.70248L16.5047 15.0584L17.9223 15.4365L17.5596 13.9588ZM8.38549 3.60693V17.3532C8.38549 17.5246 8.25206 17.6636 8.08766 17.6636C7.92327 17.6636 7.78984 17.5246 7.78984 17.3532C7.78984 16.7938 7.57184 16.2865 7.22041 15.9202C6.86898 15.5539 6.38234 15.3266 5.84567 15.3266C5.31555 15.3266 4.83486 15.5471 4.48462 15.9047L4.47092 15.9202C4.1195 16.2865 3.90149 16.7938 3.90149 17.3532C3.90149 17.9058 4.11294 18.4068 4.45603 18.7719L4.47092 18.7862C4.82235 19.1525 5.30899 19.3797 5.84626 19.3797H5.85401H20.4055V3.60693H8.38608H8.38549ZM7.78984 15.6495V3.30456V3.29649V3.28842C7.78746 2.73459 7.56946 2.23106 7.21862 1.86536C6.8666 1.4978 6.38055 1.26994 5.84567 1.26994C5.31138 1.26994 4.82533 1.49842 4.47271 1.86536C4.1195 2.23168 3.90149 2.73894 3.90149 3.29649V15.6495C3.94855 15.5911 3.99798 15.5346 4.04981 15.4812L4.06767 15.4639C4.52632 14.9951 5.15413 14.7058 5.84626 14.7058C6.54733 14.7058 7.18288 15.0025 7.64212 15.4812C7.69395 15.5353 7.74338 15.5911 7.79044 15.6495H7.78984Z" fill="#0B870B"/>
</svg>
