<svg width="23" height="30" viewBox="0 0 23 30" fill="none" xmlns="http://www.w3.org/2000/svg">
<g clip-path="url(#clip0_741_168)">
<path d="M18.9702 14.76C18.7673 14.762 18.5662 14.8009 18.376 14.875L12.7458 6.87504C12.9294 6.66016 13.0601 6.40192 13.1267 6.12259C13.1933 5.84326 13.1939 5.55121 13.1282 5.27163C13.0626 4.99204 12.9328 4.73331 12.75 4.51773C12.5672 4.30215 12.3369 4.13619 12.0789 4.03417C11.821 3.93215 11.5431 3.89712 11.2693 3.9321C10.9955 3.96708 10.7339 4.07103 10.5072 4.23498C10.2805 4.39892 10.0953 4.61795 9.96777 4.87318C9.84021 5.12841 9.77406 5.41219 9.775 5.70004C9.77509 6.13377 9.92866 6.5522 10.2063 6.87504L4.55209 14.91C4.33777 14.8111 4.10601 14.76 3.87167 14.76C3.57414 14.758 3.28128 14.8373 3.02217 14.9899C2.76306 15.1425 2.5467 15.3631 2.39458 15.63C2.24246 15.8968 2.15987 16.2005 2.15501 16.5109C2.15015 16.8213 2.22319 17.1277 2.36687 17.3996C2.51055 17.6714 2.71988 17.8994 2.97408 18.0607C3.22827 18.2221 3.5185 18.3113 3.81593 18.3194C4.11336 18.3275 4.40766 18.2543 4.66961 18.1071C4.93155 17.9599 5.15204 17.7437 5.30917 17.48L9.78459 19.845C9.73782 20.0074 9.71204 20.1756 9.70792 20.345C9.69565 20.5864 9.73061 20.8278 9.81067 21.0546C9.89074 21.2814 10.0142 21.4888 10.1736 21.6642C10.333 21.8396 10.5249 21.9792 10.7377 22.0747C10.9505 22.1701 11.1797 22.2193 11.4114 22.2193C11.643 22.2193 11.8722 22.1701 12.085 22.0747C12.2978 21.9792 12.4897 21.8396 12.6491 21.6642C12.8085 21.4888 12.932 21.2814 13.012 21.0546C13.0921 20.8278 13.1271 20.5864 13.1148 20.345C13.1133 20.2119 13.0972 20.0794 13.0669 19.95L17.5615 17.53C17.7266 17.7827 17.9514 17.9865 18.2142 18.1218C18.477 18.2571 18.7689 18.3193 19.0615 18.3023C19.3541 18.2853 19.6375 18.1897 19.8843 18.0247C20.1311 17.8598 20.3328 17.6311 20.47 17.3609C20.6072 17.0907 20.6751 16.7881 20.6673 16.4824C20.6594 16.1767 20.576 15.8783 20.4251 15.6162C20.2742 15.354 20.061 15.137 19.8061 14.9861C19.5512 14.8352 19.2633 14.7556 18.9702 14.755V14.76ZM11.5 4.65504C11.6885 4.65995 11.8713 4.72276 12.0257 4.83558C12.1802 4.94841 12.2992 5.10625 12.3681 5.28936C12.437 5.47246 12.4526 5.67269 12.413 5.865C12.3733 6.05731 12.2802 6.23314 12.1453 6.3705C12.0103 6.50787 11.8396 6.60066 11.6544 6.63726C11.4692 6.67386 11.2777 6.65265 11.104 6.57628C10.9303 6.49992 10.782 6.37178 10.6777 6.20792C10.5734 6.04406 10.5178 5.85174 10.5177 5.65504C10.524 5.38754 10.6302 5.13321 10.8138 4.94636C10.9973 4.75951 11.2436 4.65496 11.5 4.65504ZM3.87167 17.565C3.67644 17.565 3.4856 17.5046 3.32328 17.3914C3.16095 17.2783 3.03443 17.1174 2.95972 16.9292C2.88501 16.741 2.86547 16.5339 2.90355 16.3341C2.94164 16.1343 3.03565 15.9508 3.1737 15.8067C3.31174 15.6627 3.48762 15.5646 3.6791 15.5248C3.87058 15.4851 4.06904 15.5055 4.24941 15.5834C4.42978 15.6614 4.58394 15.7934 4.6924 15.9628C4.80086 16.1322 4.85875 16.3313 4.85875 16.535C4.85875 16.8082 4.75476 17.0702 4.56964 17.2634C4.38453 17.4565 4.13346 17.565 3.87167 17.565ZM5.55355 16.77C5.56626 16.6923 5.57426 16.6138 5.5775 16.535C5.57539 16.0959 5.41651 15.6734 5.13188 15.35L10.786 7.30004C10.8918 7.351 11.0027 7.38957 11.1167 7.41504V18.605C10.7341 18.6751 10.3868 18.8819 10.1344 19.19L5.55355 16.77ZM11.409 21.38C11.2137 21.38 11.0229 21.3196 10.8606 21.2064C10.6982 21.0933 10.5717 20.9324 10.497 20.7442C10.4223 20.556 10.4028 20.3489 10.4408 20.1491C10.4789 19.9493 10.5729 19.7658 10.711 19.6217C10.849 19.4777 11.0249 19.3796 11.2164 19.3398C11.4079 19.3001 11.6063 19.3205 11.7867 19.3984C11.9671 19.4764 12.1212 19.6084 12.2297 19.7778C12.3382 19.9472 12.396 20.1463 12.396 20.35C12.396 20.4853 12.3705 20.6192 12.3209 20.7442C12.2713 20.8692 12.1986 20.9827 12.1069 21.0784C12.0153 21.174 11.9065 21.2499 11.7867 21.3016C11.6669 21.3534 11.5386 21.38 11.409 21.38ZM12.7602 19.28C12.5292 18.9638 12.2038 18.7369 11.8354 18.635V7.41504C11.9494 7.38957 12.0602 7.351 12.166 7.30004L17.7675 15.3C17.6121 15.4658 17.4898 15.6621 17.4076 15.8775C17.3253 16.0929 17.2848 16.3232 17.2883 16.555C17.2903 16.6557 17.2999 16.756 17.3171 16.855L12.7602 19.28ZM18.9894 17.565C18.793 17.571 18.5994 17.5157 18.4334 17.4062C18.2673 17.2967 18.1363 17.138 18.0572 16.9504C17.9781 16.7628 17.9544 16.5548 17.9891 16.3531C18.0239 16.1514 18.1156 15.9651 18.2524 15.818C18.3892 15.6709 18.565 15.5698 18.7572 15.5276C18.9495 15.4853 19.1494 15.5039 19.3314 15.5809C19.5135 15.6579 19.6694 15.7898 19.7792 15.9598C19.8889 16.1298 19.9476 16.3301 19.9477 16.535C19.9465 16.8061 19.8434 17.0658 19.6606 17.2584C19.4778 17.451 19.2299 17.5611 18.9702 17.565H18.9894Z" fill="#0B870B"/>
</g>
<defs>
<clipPath id="clip0_741_168">
<rect width="23" height="30" fill="white"/>
</clipPath>
</defs>
</svg>
