<svg width="24" height="27" viewBox="0 0 24 27" fill="none" xmlns="http://www.w3.org/2000/svg">
<path d="M12 0.00195312C10.1825 0.00195312 8.36452 0.592934 6.93261 1.77383C4.12539 4.08893 3.7084 7.92715 5.91992 10.6903C6.94915 11.8835 7.5 13.3476 7.5 14.8502C7.5 15.2081 7.65828 15.5516 7.93945 15.8047C8.22062 16.0577 8.60237 16.2002 9 16.2002H15C15.3976 16.2002 15.7794 16.0577 16.0605 15.8047C16.3417 15.5516 16.5 15.2081 16.5 14.8502C16.5 13.3476 17.0567 11.887 18.0859 10.6938C20.2975 7.93066 19.8746 4.08893 17.0674 1.77383C15.6355 0.592934 13.8175 0.00195312 12 0.00195312ZM12 0.898434C13.5738 0.898434 15.1475 1.41142 16.3916 2.4374C18.8797 4.48936 19.2116 7.90188 17.1572 10.3115C16.0831 11.6294 15.5 13.2177 15.5 14.8502C15.5 14.9697 15.4474 15.0838 15.3535 15.1684C15.2596 15.2529 15.1328 15.3002 15 15.3002H9C8.8672 15.3002 8.74039 15.2529 8.64648 15.1684C8.55258 15.0838 8.5 14.9697 8.5 14.8502C8.5 13.2177 7.91289 11.6321 6.83886 10.3142C4.78444 7.90452 5.12026 4.48936 7.6084 2.4374C8.85246 1.41142 10.4262 0.898434 12 0.898434ZM10.3906 17.1002C9.38201 17.1002 8.5 17.8923 8.5 18.8018V19.8986C8.5 20.8081 9.38201 21.6002 10.3906 21.6002H13.6338C14.75 21.6002 15.5 20.7499 15.5 19.8002C15.5001 19.7961 15.5001 18.9044 15.5 18.9002C15.5 17.9505 14.75 17.1002 13.6338 17.1002H10.3906ZM10.5 18.0002H13.5068C14.0479 18.0002 14.5 18.4162 14.5 18.9002V19.8002C14.5 20.2842 14.0479 20.7002 13.5068 20.7002H10.5C9.94179 20.7002 9.5 20.3026 9.5 19.8002V18.9002C9.5 18.3978 9.94179 18.0002 10.5 18.0002Z" fill="#0B870B"/>
</svg>
