<svg width="49" height="63" viewBox="0 0 49 63" fill="none" xmlns="http://www.w3.org/2000/svg">
<path d="M2.66514 42.3362V42.3135V8.08302C2.66514 6.31245 3.37074 4.69913 4.50853 3.53034C5.64192 2.36004 7.21042 1.63428 8.93475 1.63428C10.6576 1.63428 12.2232 2.36004 13.3595 3.52732C14.3341 4.52676 14.9897 5.8528 15.1588 7.3255H45.5999C46.0056 7.3255 46.3349 7.66419 46.3349 8.08151V48.0048C46.3349 48.4221 46.0056 48.7608 45.5999 48.7608H8.95239H8.93328H8.91123C7.18837 48.7547 5.62869 48.0335 4.49971 46.8723L4.45855 46.8269C3.3531 45.6672 2.66955 44.0826 2.66367 42.3332L2.66514 42.3362ZM23.8333 17.5014L39.0245 33.125C39.1259 33.2293 39.1921 33.3579 39.2215 33.4924L40.468 38.5078C40.568 38.9115 40.3299 39.3228 39.9374 39.4256C39.8139 39.4573 39.6904 39.4558 39.5757 39.4256L34.6821 38.1373C34.5483 38.1026 34.4336 38.033 34.344 37.9393L19.1528 22.3156C18.1444 21.2784 18.1268 19.9735 18.6486 18.8652C18.8397 18.4585 19.1028 18.0835 19.4115 17.766C19.7202 17.4484 20.0863 17.1778 20.4802 16.9812C21.5548 16.446 22.8235 16.4626 23.8333 17.5014ZM37.8441 34.0489L22.7955 18.5704C22.306 18.0638 21.668 18.0669 21.1168 18.3405C20.8801 18.4585 20.6508 18.6293 20.4508 18.8365C20.2495 19.0436 20.0833 19.278 19.9687 19.5214C19.7026 20.0869 19.7026 20.7431 20.1921 21.2481L35.2407 36.7266L38.7393 37.6475L37.8441 34.0489ZM15.2029 8.83903V42.315C15.2029 42.7324 14.8736 43.071 14.4679 43.071C14.0622 43.071 13.7329 42.7324 13.7329 42.315C13.7329 40.9527 13.1949 39.7174 12.3275 38.8253C11.4602 37.9332 10.2592 37.3798 8.93475 37.3798C7.62644 37.3798 6.44013 37.9166 5.57576 38.7875L5.54195 38.8253C4.67465 39.7174 4.13662 40.9527 4.13662 42.315C4.13662 43.6607 4.65848 44.8809 5.5052 45.77L5.54195 45.8048C6.40926 46.6969 7.61027 47.2503 8.93622 47.2503H8.95533H44.8678V8.83903H15.2044H15.2029ZM13.7329 38.1661V8.10268V8.08302V8.06337C13.727 6.71465 13.189 5.4884 12.3231 4.59783C11.4544 3.70271 10.2548 3.1478 8.93475 3.1478C7.61614 3.1478 6.41661 3.70423 5.54636 4.59783C4.67465 5.48992 4.13662 6.72523 4.13662 8.08302V38.1661C4.25275 38.0239 4.37476 37.8864 4.50265 37.7563L4.54675 37.714C5.67867 36.5724 7.22806 35.8678 8.93622 35.8678C10.6664 35.8678 12.2349 36.5906 13.3683 37.7563C13.4962 37.8879 13.6182 38.0239 13.7343 38.1661H13.7329Z" fill="#0B870B"/>
</svg>
