<svg width="54" height="69" viewBox="0 0 54 69" fill="none" xmlns="http://www.w3.org/2000/svg">
<g clip-path="url(#clip0_675_478)">
<path d="M44.5388 33.9482C44.0623 33.9527 43.5902 34.0422 43.1438 34.2127L29.925 15.8127C30.356 15.3185 30.6629 14.7245 30.8193 14.0821C30.9757 13.4396 30.9769 12.7679 30.8228 12.1248C30.6687 11.4818 30.3639 10.8867 29.9348 10.3909C29.5056 9.89504 28.9649 9.51334 28.3592 9.27869C27.7536 9.04404 27.1013 8.96347 26.4584 9.04393C25.8155 9.12439 25.2015 9.36347 24.6691 9.74055C24.1367 10.1176 23.7021 10.6214 23.4026 11.2084C23.1031 11.7954 22.9478 12.4481 22.95 13.1102C22.9502 14.1078 23.3108 15.0702 23.9625 15.8127L10.6875 34.2932C10.1844 34.0657 9.64023 33.9482 9.09003 33.9482C8.39148 33.9436 7.7039 34.1258 7.09555 34.4768C6.4872 34.8277 5.97923 35.3353 5.62208 35.949C5.26494 36.5627 5.07103 37.2612 5.05962 37.9752C5.0482 38.6892 5.21968 39.3938 5.55702 40.0191C5.89436 40.6444 6.38583 41.1687 6.98264 41.5398C7.57945 41.9109 8.26084 42.116 8.95916 42.1347C9.65748 42.1534 10.3484 41.9851 10.9634 41.6464C11.5785 41.3078 12.0961 40.8106 12.465 40.2042L22.9725 45.6437C22.8627 46.0171 22.8022 46.4039 22.7925 46.7937C22.7637 47.3488 22.8458 47.9041 23.0338 48.4257C23.2218 48.9474 23.5117 49.4244 23.8859 49.8277C24.2601 50.2311 24.7107 50.5523 25.2104 50.7719C25.71 50.9914 26.2481 51.1046 26.7919 51.1046C27.3357 51.1046 27.8738 50.9914 28.3734 50.7719C28.8731 50.5523 29.3237 50.2311 29.6979 49.8277C30.0721 49.4244 30.3621 48.9474 30.55 48.4257C30.738 47.9041 30.8201 47.3488 30.7913 46.7937C30.7878 46.4874 30.7501 46.1826 30.6788 45.8852L41.2313 40.3192C41.6189 40.9003 42.1468 41.3691 42.7639 41.6803C43.3809 41.9915 44.0661 42.1345 44.7531 42.0953C45.4401 42.0562 46.1055 41.8363 46.6849 41.457C47.2643 41.0777 47.738 40.5517 48.0601 39.9302C48.3821 39.3087 48.5417 38.6127 48.5232 37.9096C48.5047 37.2065 48.3089 36.5202 47.9547 35.9173C47.6004 35.3143 47.0998 34.8151 46.5013 34.4681C45.9028 34.1211 45.2268 33.9381 44.5388 33.9367V33.9482ZM27 10.7067C27.4425 10.718 27.8718 10.8624 28.2344 11.1219C28.5969 11.3814 28.8765 11.7445 29.0382 12.1656C29.1999 12.5868 29.2365 13.0473 29.1435 13.4896C29.0504 13.9319 28.8318 14.3363 28.515 14.6523C28.1982 14.9682 27.7973 15.1816 27.3625 15.2658C26.9276 15.35 26.4781 15.3012 26.0703 15.1255C25.6624 14.9499 25.3143 14.6552 25.0694 14.2783C24.8246 13.9014 24.6939 13.4591 24.6938 13.0067C24.7085 12.3915 24.9579 11.8065 25.3888 11.3767C25.8198 10.947 26.398 10.7065 27 10.7067ZM9.09003 40.3997C8.63167 40.3997 8.18361 40.2607 7.8025 40.0004C7.42138 39.7401 7.12435 39.3701 6.94894 38.9373C6.77353 38.5044 6.72764 38.028 6.81706 37.5685C6.90648 37.109 7.1272 36.6869 7.45131 36.3555C7.77542 36.0242 8.18836 35.7986 8.63791 35.7072C9.08746 35.6158 9.55343 35.6627 9.9769 35.842C10.4004 36.0213 10.7623 36.325 11.017 36.7145C11.2716 37.1041 11.4075 37.5621 11.4075 38.0307C11.4075 38.659 11.1634 39.2615 10.7287 39.7058C10.2941 40.1501 9.70467 40.3997 9.09003 40.3997ZM13.0388 38.5712C13.0686 38.3924 13.0874 38.2119 13.095 38.0307C13.0901 37.0208 12.717 36.049 12.0488 35.3052L25.3238 16.7902C25.5722 16.9074 25.8325 16.9961 26.1 17.0547V42.7917C25.2017 42.9528 24.3863 43.4285 23.7938 44.1372L13.0388 38.5712ZM26.7863 49.1742C26.3279 49.1742 25.8799 49.0352 25.4987 48.7749C25.1176 48.5146 24.8206 48.1446 24.6452 47.7118C24.4698 47.2789 24.4239 46.8025 24.5133 46.343C24.6027 45.8835 24.8235 45.4613 25.1476 45.13C25.4717 44.7987 25.8846 44.5731 26.3342 44.4817C26.7837 44.3903 27.2497 44.4372 27.6731 44.6165C28.0966 44.7958 28.4586 45.0995 28.7132 45.489C28.9679 45.8786 29.1038 46.3366 29.1038 46.8052C29.1038 47.1163 29.0438 47.4243 28.9274 47.7118C28.8109 47.9992 28.6402 48.2603 28.425 48.4803C28.2098 48.7003 27.9543 48.8748 27.6731 48.9938C27.392 49.1129 27.0906 49.1742 26.7863 49.1742ZM29.9588 44.3442C29.4163 43.6169 28.6524 43.0949 27.7875 42.8607V17.0547C28.055 16.9961 28.3154 16.9074 28.5638 16.7902L41.715 35.1902C41.3503 35.5715 41.063 36.0229 40.8699 36.5183C40.6768 37.0138 40.5817 37.5434 40.59 38.0767C40.5947 38.3081 40.6172 38.5389 40.6575 38.7667L29.9588 44.3442ZM44.5838 40.3997C44.1228 40.4134 43.6683 40.2862 43.2784 40.0344C42.8885 39.7826 42.581 39.4176 42.3952 38.9861C42.2094 38.5546 42.1537 38.0763 42.2354 37.6123C42.317 37.1483 42.5323 36.7197 42.8535 36.3815C43.1748 36.0432 43.5875 35.8107 44.0388 35.7135C44.49 35.6164 44.9594 35.6591 45.3868 35.8362C45.8143 36.0133 46.1803 36.3167 46.438 36.7076C46.6958 37.0986 46.8336 37.5592 46.8338 38.0307C46.8309 38.6541 46.5889 39.2515 46.1597 39.6945C45.7306 40.1374 45.1486 40.3907 44.5388 40.3997H44.5838Z" fill="#0B870B"/>
</g>
<defs>
<clipPath id="clip0_675_478">
<rect width="54" height="69" fill="white"/>
</clipPath>
</defs>
</svg>
