<svg width="48" height="60" viewBox="0 0 48 60" fill="none" xmlns="http://www.w3.org/2000/svg">
<path d="M24 0.00390625C20.365 0.00390625 16.729 1.3172 13.8652 3.94141C8.25079 9.08609 7.4168 17.6154 11.8398 23.7559C13.8983 26.4072 15 29.6609 15 33C15 33.7953 15.3166 34.5588 15.8789 35.1211C16.4412 35.6834 17.2047 36 18 36H30C30.7953 36 31.5588 35.6834 32.1211 35.1211C32.6834 34.5588 33 33.7953 33 33C33 29.6609 34.1134 26.4151 36.1719 23.7637C40.5949 17.6233 39.7492 9.08609 34.1348 3.94141C31.2709 1.3172 27.635 0.00390625 24 0.00390625ZM24 1.99609C27.1475 1.99609 30.2951 3.13606 32.7832 5.41602C37.7595 9.97591 38.4233 17.5593 34.3144 22.9141C32.1662 25.8427 31 29.3722 31 33C31 33.2656 30.8948 33.5192 30.707 33.707C30.5192 33.8948 30.2656 34 30 34H18C17.7344 34 17.4808 33.8948 17.293 33.707C17.1052 33.5192 17 33.2656 17 33C17 29.3722 15.8258 25.8487 13.6777 22.9199C9.56889 17.5652 10.2405 9.97591 15.2168 5.41602C17.7049 3.13606 20.8525 1.99609 24 1.99609ZM20.7812 38C18.764 38 17 39.7601 17 41.7812V44.2187C17 46.2399 18.764 48 20.7812 48H27.2676C29.5 48 31 46.1104 31 44C31.0001 43.991 31.0001 42.0093 31 42C31 39.8896 29.5 38 27.2676 38H20.7812ZM21 40H27.0137C28.0959 40 29 40.9244 29 42V44C29 45.0756 28.0959 46 27.0137 46H21C19.8836 46 19 45.1164 19 44V42C19 40.8836 19.8836 40 21 40Z" fill="#0B870B"/>
</svg>
